<mxfile host="app.diagrams.net" modified="2022-08-03T07:03:36.165Z" agent="5.0 (X11; Linux x86_64) AppleWebKit/537.36 (KHTML, like Gecko) Chrome/103.0.0.0 Safari/537.36" etag="59BBXOJkTt0_LJJyfIeg" version="20.2.0" type="github">
  <diagram id="cshwPX_A37NrAggyJGjt" name="Page-1">
    <mxGraphModel dx="868" dy="451" grid="1" gridSize="10" guides="1" tooltips="1" connect="1" arrows="1" fold="1" page="1" pageScale="1" pageWidth="850" pageHeight="1100" math="0" shadow="0">
      <root>
        <mxCell id="0" />
        <mxCell id="1" parent="0" />
        <mxCell id="meagpWqbTiwn4pSL5lax-3" value="1" style="ellipse;whiteSpace=wrap;html=1;aspect=fixed;fillColor=#3366FF;strokeColor=none;" parent="1" vertex="1">
          <mxGeometry x="40" y="40" width="40" height="40" as="geometry" />
        </mxCell>
        <mxCell id="meagpWqbTiwn4pSL5lax-4" value="Pointer" style="text;html=1;align=center;verticalAlign=middle;resizable=0;points=[];autosize=1;strokeColor=none;fillColor=none;" parent="1" vertex="1">
          <mxGeometry x="110" y="45" width="60" height="30" as="geometry" />
        </mxCell>
        <mxCell id="meagpWqbTiwn4pSL5lax-5" value="&lt;pre&gt;&lt;font face=&quot;Helvetica&quot; size=&quot;1&quot; color=&quot;#000000&quot;&gt;&lt;b style=&quot;font-size: 18px;&quot;&gt;Topic&lt;/b&gt;&lt;/font&gt;&lt;/pre&gt;" style="rounded=1;whiteSpace=wrap;html=1;fillColor=#FFD70F;strokeColor=none;arcSize=33;" parent="1" vertex="1">
          <mxGeometry x="40" y="120" width="120" height="40" as="geometry" />
        </mxCell>
        <mxCell id="meagpWqbTiwn4pSL5lax-7" value="Basic building block or Heading" style="text;html=1;align=center;verticalAlign=middle;resizable=0;points=[];autosize=1;strokeColor=none;fillColor=none;" parent="1" vertex="1">
          <mxGeometry x="200" y="125" width="190" height="30" as="geometry" />
        </mxCell>
        <mxCell id="meagpWqbTiwn4pSL5lax-8" value="&lt;pre&gt;&lt;font color=&quot;#ffd70f&quot; face=&quot;Helvetica&quot; size=&quot;1&quot;&gt;&lt;b style=&quot;font-size: 16px;&quot;&gt;Sub Topic&lt;/b&gt;&lt;/font&gt;&lt;/pre&gt;" style="rounded=1;whiteSpace=wrap;html=1;fillColor=none;strokeColor=#FFD70F;arcSize=33;" parent="1" vertex="1">
          <mxGeometry x="40" y="200" width="120" height="40" as="geometry" />
        </mxCell>
        <mxCell id="meagpWqbTiwn4pSL5lax-10" value="Child of Heading" style="text;html=1;align=center;verticalAlign=middle;resizable=0;points=[];autosize=1;strokeColor=none;fillColor=none;" parent="1" vertex="1">
          <mxGeometry x="200" y="205" width="110" height="30" as="geometry" />
        </mxCell>
        <mxCell id="meagpWqbTiwn4pSL5lax-11" value="" style="endArrow=classic;html=1;fontFamily=Helvetica;fontSize=16;fontColor=#FFD70F;strokeColor=#1EB2FC;edgeStyle=orthogonalEdgeStyle;curved=1;shadow=0;sketch=0;strokeWidth=3;" parent="1" edge="1">
          <mxGeometry width="50" height="50" relative="1" as="geometry">
            <mxPoint x="40" y="300" as="sourcePoint" />
            <mxPoint x="160" y="300" as="targetPoint" />
          </mxGeometry>
        </mxCell>
        <mxCell id="meagpWqbTiwn4pSL5lax-30" style="edgeStyle=orthogonalEdgeStyle;curved=1;sketch=0;orthogonalLoop=1;jettySize=auto;html=1;exitX=1;exitY=0.5;exitDx=0;exitDy=0;entryX=0;entryY=0.5;entryDx=0;entryDy=0;shadow=0;fontFamily=Helvetica;fontSize=16;fontColor=#FFD70F;startArrow=none;startFill=0;strokeColor=#1EB2FC;" parent="1" source="meagpWqbTiwn4pSL5lax-12" target="meagpWqbTiwn4pSL5lax-13" edge="1">
          <mxGeometry relative="1" as="geometry" />
        </mxCell>
        <mxCell id="meagpWqbTiwn4pSL5lax-31" style="edgeStyle=orthogonalEdgeStyle;curved=1;sketch=0;orthogonalLoop=1;jettySize=auto;html=1;exitX=0.75;exitY=1;exitDx=0;exitDy=0;entryX=0.25;entryY=1;entryDx=0;entryDy=0;shadow=0;fontFamily=Helvetica;fontSize=16;fontColor=#FFD70F;startArrow=none;startFill=0;strokeColor=#1EB2FC;" parent="1" source="meagpWqbTiwn4pSL5lax-12" target="meagpWqbTiwn4pSL5lax-13" edge="1">
          <mxGeometry relative="1" as="geometry" />
        </mxCell>
        <mxCell id="meagpWqbTiwn4pSL5lax-32" style="edgeStyle=orthogonalEdgeStyle;curved=1;sketch=0;orthogonalLoop=1;jettySize=auto;html=1;exitX=0.5;exitY=1;exitDx=0;exitDy=0;entryX=1;entryY=0.5;entryDx=0;entryDy=0;shadow=0;fontFamily=Helvetica;fontSize=16;fontColor=#FFD70F;startArrow=none;startFill=0;strokeColor=#1EB2FC;" parent="1" source="meagpWqbTiwn4pSL5lax-12" target="meagpWqbTiwn4pSL5lax-13" edge="1">
          <mxGeometry relative="1" as="geometry" />
        </mxCell>
        <mxCell id="meagpWqbTiwn4pSL5lax-33" style="edgeStyle=orthogonalEdgeStyle;curved=1;sketch=0;orthogonalLoop=1;jettySize=auto;html=1;exitX=0;exitY=0.5;exitDx=0;exitDy=0;shadow=0;fontFamily=Helvetica;fontSize=16;fontColor=#FFD70F;startArrow=none;startFill=0;strokeColor=#1EB2FC;" parent="1" source="meagpWqbTiwn4pSL5lax-12" edge="1">
          <mxGeometry relative="1" as="geometry">
            <mxPoint x="150" y="370" as="targetPoint" />
          </mxGeometry>
        </mxCell>
        <mxCell id="meagpWqbTiwn4pSL5lax-12" value="&lt;pre&gt;&lt;font color=&quot;#ffd70f&quot; face=&quot;Helvetica&quot; size=&quot;1&quot;&gt;&lt;b style=&quot;font-size: 16px;&quot;&gt;Sub Topic&lt;/b&gt;&lt;/font&gt;&lt;/pre&gt;" style="rounded=1;whiteSpace=wrap;html=1;fillColor=none;strokeColor=#FFD70F;arcSize=33;" parent="1" vertex="1">
          <mxGeometry x="120" y="320" width="120" height="40" as="geometry" />
        </mxCell>
        <mxCell id="meagpWqbTiwn4pSL5lax-13" value="&lt;pre&gt;&lt;font face=&quot;Helvetica&quot; size=&quot;1&quot; color=&quot;#000000&quot;&gt;&lt;b style=&quot;font-size: 18px;&quot;&gt;Topic&lt;/b&gt;&lt;/font&gt;&lt;/pre&gt;" style="rounded=1;whiteSpace=wrap;html=1;fillColor=#FFD70F;strokeColor=none;arcSize=33;" parent="1" vertex="1">
          <mxGeometry x="320" y="320" width="120" height="40" as="geometry" />
        </mxCell>
        <mxCell id="meagpWqbTiwn4pSL5lax-17" value="The Line" style="text;html=1;align=center;verticalAlign=middle;resizable=0;points=[];autosize=1;strokeColor=none;fillColor=none;" parent="1" vertex="1">
          <mxGeometry x="220" y="280" width="70" height="30" as="geometry" />
        </mxCell>
        <mxCell id="meagpWqbTiwn4pSL5lax-34" value="&lt;font style=&quot;font-size: 15px;&quot; color=&quot;#50c938&quot;&gt;A text description that can contain a long-long descriptive text.&lt;/font&gt;" style="text;html=1;align=center;verticalAlign=middle;resizable=0;points=[];autosize=1;strokeColor=none;fillColor=none;fontSize=16;fontFamily=Helvetica;fontColor=#FFD70F;shadow=0;glass=0;rounded=0;sketch=0;" parent="1" vertex="1">
          <mxGeometry x="55" y="400" width="430" height="30" as="geometry" />
        </mxCell>
        <mxCell id="meagpWqbTiwn4pSL5lax-39" value="Description" style="text;html=1;align=center;verticalAlign=middle;resizable=0;points=[];autosize=1;strokeColor=none;fillColor=none;" parent="1" vertex="1">
          <mxGeometry x="545" y="400" width="80" height="30" as="geometry" />
        </mxCell>
        <mxCell id="meagpWqbTiwn4pSL5lax-43" value="Color Scheme" style="text;html=1;align=center;verticalAlign=middle;resizable=0;points=[];autosize=1;strokeColor=none;fillColor=none;" parent="1" vertex="1">
          <mxGeometry x="40" y="480" width="100" height="30" as="geometry" />
        </mxCell>
        <mxCell id="meagpWqbTiwn4pSL5lax-44" value="Primary: Blue:&amp;nbsp;#3366FF&lt;br&gt;Success: Green:&amp;nbsp;#50C938&lt;br&gt;Info: Blue:&amp;nbsp;#1EB2FC&lt;br&gt;Warning: Yellow&amp;nbsp;#FFD70F&lt;br&gt;Danger: Red:&amp;nbsp;#FF472B&lt;br&gt;" style="text;html=1;align=center;verticalAlign=middle;resizable=0;points=[];autosize=1;strokeColor=none;fillColor=none;" parent="1" vertex="1">
          <mxGeometry x="40" y="520" width="160" height="90" as="geometry" />
        </mxCell>
        <mxCell id="Oku_Xs1xo04veZ5rl86R-1" value="" style="endArrow=classic;html=1;fontFamily=Helvetica;fontSize=16;fontColor=#FFD70F;strokeColor=#FF472B;edgeStyle=orthogonalEdgeStyle;curved=1;shadow=0;sketch=0;strokeWidth=3;" edge="1" parent="1">
          <mxGeometry width="50" height="50" relative="1" as="geometry">
            <mxPoint x="365" y="300" as="sourcePoint" />
            <mxPoint x="485" y="300" as="targetPoint" />
          </mxGeometry>
        </mxCell>
        <mxCell id="Oku_Xs1xo04veZ5rl86R-2" value="The Main Line" style="text;html=1;align=center;verticalAlign=middle;resizable=0;points=[];autosize=1;strokeColor=none;fillColor=none;" vertex="1" parent="1">
          <mxGeometry x="510" y="280" width="100" height="30" as="geometry" />
        </mxCell>
      </root>
    </mxGraphModel>
  </diagram>
</mxfile>
